# xmcd
#
# Track frame offsets:
#	150
#	20591
#	37883
#	54383
#	72509
#	94759
#	115898
#	132378
#	150328
#	174823
#	193226
#	212409
#	231832
#	248826
#	266684
#	284122
#	301959
#	327305
#
# Disc length: 4661 seconds
#
# Revision: 0
# Processed by: cddbd v1.5.2PL0 Copyright (c) Steve Scherf et al.
# Submitted via: dBpowerAMP V4.0
#
DISCID=00123312
DTITLE=Alan Jackson - Alan Jackson: Greatest Hits, Vol. 2
DYEAR=2003
DGENRE=Country
TTITLE0=Remember When
TTITLE1=Redneck Yacht Club
TTITLE2=Probably Wouldn't Be This Way
TTITLE3=My Sister
TTITLE4=Please Remember Me
TTITLE5=My Best Friend
TTITLE6=My Next Thirty Years
TTITLE7=Amazing Love
TTITLE8=Voice of Truth
TTITLE9=My Jesus, My Saviour
TTITLE10=Trading My Sorrows
TTITLE11=My Redeemer
TTITLE12=Heart of Worship
TTITLE13=Presence (my Heart's Desire)
TTITLE14=Open the Eyes of my Heart
TTITLE15=You Are Mine
TTITLE16=I Am Yours
TTITLE17=Praise you in the Storm
EXTD=
EXTT0=
EXTT1=
EXTT2=
EXTT3=
EXTT4=
EXTT5=
EXTT6=
EXTT7=
EXTT8=
EXTT9=
EXTT10=
EXTT11=
EXTT12=
EXTT13=
EXTT14=
EXTT15=
EXTT16=
EXTT17=
PLAYORDER=
